<mxfile host="Electron" agent="Mozilla/5.0 (Windows NT 10.0; Win64; x64) AppleWebKit/537.36 (KHTML, like Gecko) draw.io/28.1.2 Chrome/138.0.7204.243 Electron/37.4.0 Safari/537.36" version="28.1.2">
  <diagram name="ページ1" id="nZwk5EC3gKYQb_rT2jHA">
    <mxGraphModel dx="786" dy="516" grid="0" gridSize="10" guides="1" tooltips="1" connect="1" arrows="1" fold="1" page="1" pageScale="1" pageWidth="827" pageHeight="1169" background="#ffffff" math="0" shadow="0">
      <root>
        <mxCell id="0" />
        <mxCell id="1" parent="0" />
        <mxCell id="ylw-R3-aIPUMT0YURn_o-1" value="事務職員" style="shape=umlActor;verticalLabelPosition=bottom;verticalAlign=top;html=1;outlineConnect=0;" parent="1" vertex="1">
          <mxGeometry x="94" y="56" width="30" height="60" as="geometry" />
        </mxCell>
        <mxCell id="ylw-R3-aIPUMT0YURn_o-2" value="&lt;div&gt;メニュー画面&lt;/div&gt;" style="shape=umlBoundary;whiteSpace=wrap;html=1;fillColor=#d5e8d4;strokeColor=#82b366;" parent="1" vertex="1">
          <mxGeometry x="243" y="46" width="100" height="80" as="geometry" />
        </mxCell>
        <mxCell id="ylw-R3-aIPUMT0YURn_o-6" value="貸出履歴検索画面" style="shape=umlBoundary;whiteSpace=wrap;html=1;fillColor=#d5e8d4;strokeColor=#82b366;" parent="1" vertex="1">
          <mxGeometry x="243" y="190" width="100" height="80" as="geometry" />
        </mxCell>
        <mxCell id="ylw-R3-aIPUMT0YURn_o-10" value="貸出履歴一覧画面" style="shape=umlBoundary;whiteSpace=wrap;html=1;fillColor=#d5e8d4;strokeColor=#82b366;" parent="1" vertex="1">
          <mxGeometry x="243" y="478" width="100" height="80" as="geometry" />
        </mxCell>
        <mxCell id="ylw-R3-aIPUMT0YURn_o-12" value="" style="endArrow=classic;html=1;rounded=0;" parent="1" source="ylw-R3-aIPUMT0YURn_o-1" target="ylw-R3-aIPUMT0YURn_o-2" edge="1">
          <mxGeometry width="50" height="50" relative="1" as="geometry">
            <mxPoint x="380" y="296" as="sourcePoint" />
            <mxPoint x="430" y="246" as="targetPoint" />
          </mxGeometry>
        </mxCell>
        <mxCell id="ylw-R3-aIPUMT0YURn_o-13" value="" style="endArrow=classic;html=1;rounded=0;" parent="1" source="GOpzxrWnoPcJdGsYtQRh-2" target="ylw-R3-aIPUMT0YURn_o-6" edge="1">
          <mxGeometry width="50" height="50" relative="1" as="geometry">
            <mxPoint x="380" y="296" as="sourcePoint" />
            <mxPoint x="430" y="246" as="targetPoint" />
          </mxGeometry>
        </mxCell>
        <mxCell id="ylw-R3-aIPUMT0YURn_o-14" value="" style="endArrow=classic;html=1;rounded=0;" parent="1" source="ylw-R3-aIPUMT0YURn_o-1" target="ylw-R3-aIPUMT0YURn_o-6" edge="1">
          <mxGeometry width="50" height="50" relative="1" as="geometry">
            <mxPoint x="380" y="296" as="sourcePoint" />
            <mxPoint x="430" y="246" as="targetPoint" />
          </mxGeometry>
        </mxCell>
        <mxCell id="ylw-R3-aIPUMT0YURn_o-15" value="貸出履歴メニューを押下" style="text;html=1;align=center;verticalAlign=middle;whiteSpace=wrap;rounded=0;" parent="1" vertex="1">
          <mxGeometry x="119" y="34" width="144" height="30" as="geometry" />
        </mxCell>
        <mxCell id="ylw-R3-aIPUMT0YURn_o-16" value="検索ボタンを押下" style="text;html=1;align=center;verticalAlign=middle;whiteSpace=wrap;rounded=0;fillColor=default;" parent="1" vertex="1">
          <mxGeometry x="142" y="137" width="101" height="30" as="geometry" />
        </mxCell>
        <mxCell id="ylw-R3-aIPUMT0YURn_o-17" value="貸出DB" style="ellipse;shape=umlEntity;whiteSpace=wrap;html=1;fillColor=#dae8fc;strokeColor=#6c8ebf;" parent="1" vertex="1">
          <mxGeometry x="466" y="315" width="80" height="80" as="geometry" />
        </mxCell>
        <mxCell id="ylw-R3-aIPUMT0YURn_o-18" value="書名検索" style="ellipse;shape=umlControl;whiteSpace=wrap;html=1;fillColor=#f8cecc;strokeColor=#b85450;" parent="1" vertex="1">
          <mxGeometry x="471" y="190" width="70" height="80" as="geometry" />
        </mxCell>
        <mxCell id="ylw-R3-aIPUMT0YURn_o-20" value="" style="endArrow=classic;html=1;rounded=0;entryX=0.062;entryY=0.308;entryDx=0;entryDy=0;entryPerimeter=0;exitX=0.983;exitY=0.292;exitDx=0;exitDy=0;exitPerimeter=0;" parent="1" source="ylw-R3-aIPUMT0YURn_o-6" target="ylw-R3-aIPUMT0YURn_o-18" edge="1">
          <mxGeometry width="50" height="50" relative="1" as="geometry">
            <mxPoint x="308" y="396" as="sourcePoint" />
            <mxPoint x="358" y="346" as="targetPoint" />
          </mxGeometry>
        </mxCell>
        <mxCell id="ylw-R3-aIPUMT0YURn_o-21" value="" style="endArrow=classic;html=1;rounded=0;exitX=0.606;exitY=0.992;exitDx=0;exitDy=0;exitPerimeter=0;entryX=0.767;entryY=0.167;entryDx=0;entryDy=0;entryPerimeter=0;" parent="1" source="GOpzxrWnoPcJdGsYtQRh-7" target="ylw-R3-aIPUMT0YURn_o-18" edge="1">
          <mxGeometry width="50" height="50" relative="1" as="geometry">
            <mxPoint x="308" y="396" as="sourcePoint" />
            <mxPoint x="358" y="346" as="targetPoint" />
          </mxGeometry>
        </mxCell>
        <mxCell id="ylw-R3-aIPUMT0YURn_o-22" value="" style="endArrow=classic;html=1;rounded=0;entryX=0.29;entryY=1;entryDx=0;entryDy=0;entryPerimeter=0;exitX=0.433;exitY=0.142;exitDx=0;exitDy=0;exitPerimeter=0;" parent="1" source="ylw-R3-aIPUMT0YURn_o-18" target="GOpzxrWnoPcJdGsYtQRh-7" edge="1">
          <mxGeometry width="50" height="50" relative="1" as="geometry">
            <mxPoint x="499.68" y="224.36" as="sourcePoint" />
            <mxPoint x="498.99999999999994" y="129" as="targetPoint" />
          </mxGeometry>
        </mxCell>
        <mxCell id="ylw-R3-aIPUMT0YURn_o-23" value="書名検索" style="text;html=1;align=center;verticalAlign=middle;whiteSpace=wrap;rounded=0;" parent="1" vertex="1">
          <mxGeometry x="439" y="150" width="60" height="30" as="geometry" />
        </mxCell>
        <mxCell id="ylw-R3-aIPUMT0YURn_o-24" value="検索結果" style="text;html=1;align=center;verticalAlign=middle;whiteSpace=wrap;rounded=0;" parent="1" vertex="1">
          <mxGeometry x="533" y="150" width="60" height="30" as="geometry" />
        </mxCell>
        <mxCell id="ylw-R3-aIPUMT0YURn_o-25" value="" style="endArrow=classic;html=1;rounded=0;entryX=0.983;entryY=0.75;entryDx=0;entryDy=0;entryPerimeter=0;exitX=0.014;exitY=0.75;exitDx=0;exitDy=0;exitPerimeter=0;" parent="1" source="ylw-R3-aIPUMT0YURn_o-18" target="ylw-R3-aIPUMT0YURn_o-6" edge="1">
          <mxGeometry width="50" height="50" relative="1" as="geometry">
            <mxPoint x="308" y="396" as="sourcePoint" />
            <mxPoint x="358" y="346" as="targetPoint" />
          </mxGeometry>
        </mxCell>
        <mxCell id="ylw-R3-aIPUMT0YURn_o-33" value="検索結果を表示" style="text;html=1;align=center;verticalAlign=middle;whiteSpace=wrap;rounded=0;" parent="1" vertex="1">
          <mxGeometry x="366" y="248" width="87" height="30" as="geometry" />
        </mxCell>
        <mxCell id="ylw-R3-aIPUMT0YURn_o-34" value="" style="endArrow=classic;html=1;rounded=0;entryX=-0.04;entryY=0.675;entryDx=0;entryDy=0;entryPerimeter=0;" parent="1" source="ylw-R3-aIPUMT0YURn_o-1" target="ylw-R3-aIPUMT0YURn_o-6" edge="1">
          <mxGeometry width="50" height="50" relative="1" as="geometry">
            <mxPoint x="308" y="308" as="sourcePoint" />
            <mxPoint x="358" y="258" as="targetPoint" />
            <Array as="points">
              <mxPoint x="106" y="247" />
            </Array>
          </mxGeometry>
        </mxCell>
        <mxCell id="ylw-R3-aIPUMT0YURn_o-36" value="管理番号を押下" style="text;html=1;align=center;verticalAlign=middle;whiteSpace=wrap;rounded=0;fillColor=default;" parent="1" vertex="1">
          <mxGeometry x="55.5" y="197" width="107" height="30" as="geometry" />
        </mxCell>
        <mxCell id="ylw-R3-aIPUMT0YURn_o-37" value="&lt;font style=&quot;font-size: 11px;&quot;&gt;管理番号検索&lt;/font&gt;" style="ellipse;shape=umlControl;whiteSpace=wrap;html=1;fillColor=#f8cecc;strokeColor=#b85450;" parent="1" vertex="1">
          <mxGeometry x="258" y="315" width="70" height="80" as="geometry" />
        </mxCell>
        <mxCell id="ylw-R3-aIPUMT0YURn_o-39" value="" style="endArrow=classic;html=1;rounded=0;" parent="1" source="ylw-R3-aIPUMT0YURn_o-6" target="ylw-R3-aIPUMT0YURn_o-37" edge="1">
          <mxGeometry width="50" height="50" relative="1" as="geometry">
            <mxPoint x="308" y="320" as="sourcePoint" />
            <mxPoint x="358" y="270" as="targetPoint" />
          </mxGeometry>
        </mxCell>
        <mxCell id="ylw-R3-aIPUMT0YURn_o-40" value="" style="endArrow=classic;html=1;rounded=0;entryX=0.058;entryY=0.263;entryDx=0;entryDy=0;entryPerimeter=0;exitX=0.905;exitY=0.296;exitDx=0;exitDy=0;exitPerimeter=0;" parent="1" source="ylw-R3-aIPUMT0YURn_o-37" target="ylw-R3-aIPUMT0YURn_o-17" edge="1">
          <mxGeometry width="50" height="50" relative="1" as="geometry">
            <mxPoint x="308" y="320" as="sourcePoint" />
            <mxPoint x="381" y="327" as="targetPoint" />
          </mxGeometry>
        </mxCell>
        <mxCell id="ylw-R3-aIPUMT0YURn_o-41" value="" style="endArrow=classic;html=1;rounded=0;entryX=1.057;entryY=0.596;entryDx=0;entryDy=0;entryPerimeter=0;exitX=0;exitY=0.596;exitDx=0;exitDy=0;exitPerimeter=0;" parent="1" source="ylw-R3-aIPUMT0YURn_o-17" target="ylw-R3-aIPUMT0YURn_o-37" edge="1">
          <mxGeometry width="50" height="50" relative="1" as="geometry">
            <mxPoint x="463" y="406" as="sourcePoint" />
            <mxPoint x="358" y="270" as="targetPoint" />
          </mxGeometry>
        </mxCell>
        <mxCell id="ylw-R3-aIPUMT0YURn_o-42" value="検索結果" style="text;html=1;align=center;verticalAlign=middle;whiteSpace=wrap;rounded=0;" parent="1" vertex="1">
          <mxGeometry x="384" y="360" width="60" height="30" as="geometry" />
        </mxCell>
        <mxCell id="ylw-R3-aIPUMT0YURn_o-43" value="&lt;font style=&quot;font-size: 11px;&quot;&gt;管理番号検索&lt;/font&gt;" style="text;html=1;align=center;verticalAlign=middle;whiteSpace=wrap;rounded=0;" parent="1" vertex="1">
          <mxGeometry x="368" y="315" width="71" height="30" as="geometry" />
        </mxCell>
        <mxCell id="ylw-R3-aIPUMT0YURn_o-44" value="" style="endArrow=classic;html=1;rounded=0;exitX=0.305;exitY=0.946;exitDx=0;exitDy=0;exitPerimeter=0;entryX=0.363;entryY=0.075;entryDx=0;entryDy=0;entryPerimeter=0;" parent="1" source="ylw-R3-aIPUMT0YURn_o-37" target="ylw-R3-aIPUMT0YURn_o-10" edge="1">
          <mxGeometry width="50" height="50" relative="1" as="geometry">
            <mxPoint x="308" y="336" as="sourcePoint" />
            <mxPoint x="358" y="286" as="targetPoint" />
          </mxGeometry>
        </mxCell>
        <mxCell id="ylw-R3-aIPUMT0YURn_o-46" value="検索結果を表示" style="text;html=1;align=center;verticalAlign=middle;whiteSpace=wrap;rounded=0;fillColor=default;" parent="1" vertex="1">
          <mxGeometry x="190" y="416" width="87" height="30" as="geometry" />
        </mxCell>
        <mxCell id="ylw-R3-aIPUMT0YURn_o-51" value="&lt;font style=&quot;font-size: 10px;&quot;&gt;エラーメッセージを表示&lt;/font&gt;" style="text;html=1;align=center;verticalAlign=middle;whiteSpace=wrap;rounded=0;" parent="1" vertex="1">
          <mxGeometry x="339.5" y="221" width="140" height="30" as="geometry" />
        </mxCell>
        <mxCell id="GOpzxrWnoPcJdGsYtQRh-2" value="&lt;font style=&quot;font-size: 11px;&quot;&gt;貸出履歴検索画面表示&lt;/font&gt;" style="ellipse;shape=umlControl;whiteSpace=wrap;html=1;fillColor=#f8cecc;strokeColor=#b85450;" vertex="1" parent="1">
          <mxGeometry x="374.5" y="46" width="70" height="80" as="geometry" />
        </mxCell>
        <mxCell id="GOpzxrWnoPcJdGsYtQRh-3" value="" style="endArrow=classic;html=1;rounded=0;" edge="1" parent="1" source="ylw-R3-aIPUMT0YURn_o-2" target="GOpzxrWnoPcJdGsYtQRh-2">
          <mxGeometry width="50" height="50" relative="1" as="geometry">
            <mxPoint x="380" y="310" as="sourcePoint" />
            <mxPoint x="430" y="260" as="targetPoint" />
          </mxGeometry>
        </mxCell>
        <mxCell id="GOpzxrWnoPcJdGsYtQRh-4" value="" style="endArrow=classic;html=1;rounded=0;exitX=0.619;exitY=0.996;exitDx=0;exitDy=0;exitPerimeter=0;entryX=0.583;entryY=0;entryDx=0;entryDy=0;entryPerimeter=0;" edge="1" parent="1" source="ylw-R3-aIPUMT0YURn_o-37" target="ylw-R3-aIPUMT0YURn_o-10">
          <mxGeometry width="50" height="50" relative="1" as="geometry">
            <mxPoint x="380" y="410" as="sourcePoint" />
            <mxPoint x="430" y="360" as="targetPoint" />
          </mxGeometry>
        </mxCell>
        <mxCell id="GOpzxrWnoPcJdGsYtQRh-5" value="" style="endArrow=classic;html=1;rounded=0;entryX=0.997;entryY=0.5;entryDx=0;entryDy=0;entryPerimeter=0;exitX=-0.033;exitY=0.508;exitDx=0;exitDy=0;exitPerimeter=0;" edge="1" parent="1" source="ylw-R3-aIPUMT0YURn_o-18" target="ylw-R3-aIPUMT0YURn_o-6">
          <mxGeometry width="50" height="50" relative="1" as="geometry">
            <mxPoint x="380" y="410" as="sourcePoint" />
            <mxPoint x="430" y="360" as="targetPoint" />
          </mxGeometry>
        </mxCell>
        <mxCell id="GOpzxrWnoPcJdGsYtQRh-6" value="&lt;font style=&quot;font-size: 12px;&quot;&gt;エラーメッセージ&lt;/font&gt;&lt;span style=&quot;background-color: transparent; color: light-dark(rgb(0, 0, 0), rgb(255, 255, 255));&quot;&gt;表示&lt;/span&gt;" style="text;html=1;align=center;verticalAlign=middle;whiteSpace=wrap;rounded=0;" vertex="1" parent="1">
          <mxGeometry x="294.5" y="433" width="140" height="30" as="geometry" />
        </mxCell>
        <mxCell id="GOpzxrWnoPcJdGsYtQRh-7" value="図書DB" style="ellipse;shape=umlEntity;whiteSpace=wrap;html=1;fillColor=#dae8fc;strokeColor=#6c8ebf;" vertex="1" parent="1">
          <mxGeometry x="479.5" y="46" width="80" height="80" as="geometry" />
        </mxCell>
      </root>
    </mxGraphModel>
  </diagram>
</mxfile>
